<svg id="Capa_1" enable-background="new 0 0 512 512" height="512" viewBox="0 0 512 512" width="512" xmlns="http://www.w3.org/2000/svg"><g><g><g><g><g><g><g><g><g><g><g><g><g><g><g><g><g><g><g><g><g><g><g><g><g><path d="m221.414 332.868c25.716 0 66.637-68.631 58.694-70.16 0 0-13.078-18.963-12.947-17.376l-5.131-62.013h-81.234l-5.135 62.013-12.942 17.376c-7.942 1.528 32.979 70.16 58.695 70.16z" fill="#ffeae1"/><path d="m274.302 259.638-3.216 17.731c-4.355 24.014-25.266 41.474-49.672 41.474-24.406 0-45.317-17.46-49.672-41.474l-3.215-17.731s-129.263 18.761-129.263 130.473v65.954c0 15.599 12.645 28.244 28.244 28.244h307.814c15.599 0 28.244-12.645 28.244-28.244v-65.954c-.001-111.712-129.264-130.473-129.264-130.473z" fill="#3590bb"/><g fill="#7aabdc"><path d="m183.481 484.261 2.874-5.103-73.653-92.666c-1.679-2.315-1.804-5.377-.313-7.823l4.296-7.045c2.917-4.786 3.343-10.72 1.137-15.873-2.205-5.153-6.791-8.941-12.267-10.134l-.187-.04c-3.768-.821-6.197-4.558-5.414-8.334l11.657-55.823-.936-2.149c-34.41 17.916-71.41 51.07-71.41 110.839v65.954c0 15.599 12.645 28.244 28.244 28.244h116.02c-.031-.029-.048-.047-.048-.047z"/><path d="m373.165 484.309v-93.569c0-40.575-16.48-69.296-37.87-89.486l7.581 35.99c.782 3.775-1.647 7.513-5.412 8.333l-.192.042c-5.474 1.192-10.06 4.981-12.265 10.133-2.206 5.153-1.781 11.087 1.137 15.873l4.295 7.044c1.492 2.447 1.367 5.509-.312 7.824l-73.651 92.619 2.871 5.15s-.019.019-.048.048h113.866z"/></g><g><path d="m274.302 259.638-1.689 9.316c38.294 14.015 94.898 47.228 94.898 121.157v94.198h7.811c15.599 0 28.244-12.645 28.244-28.244v-65.954c-.001-111.712-129.264-130.473-129.264-130.473z" fill="#5f98d5"/></g><path d="m298.706 315.512 5.323-20.4-15.499 14.293c-4.314 3.979-9.866 6.17-15.631 6.17-2.705 0-5.4-.488-8.011-1.449l-13.666-5.034-29.807-4.389-29.807 4.389-13.667 5.034c-2.611.961-5.307 1.449-8.011 1.449-5.766 0-11.317-2.191-15.63-6.17l-15.5-14.297 5.323 20.403c18.256 69.98 61.386 152.26 70.26 168.798h14.039c8.819-16.428 52.01-98.764 70.284-168.797z" fill="#e5ecf6"/></g></g></g></g></g></g></g></g></g></g></g></g></g><g><path d="m236.434 351.947-15.02-4.954v.001-.001l-15.02 4.954-18.422 106.377 33.442 25.985 33.449-25.943z" fill="#fb636f"/><g><g><g><g><g><path d="m141.863 259.996 33.799-14.664-3.793 10.412c-.258.707-.418 1.451-.441 2.203-.004.119-.007.239-.009.358-.312 14.467 8.432 27.611 21.618 33.571l28.378 12.826-41.335 15.225c-19.508 7.185-40.073-7.706-39.334-28.482z" fill="#d4e2f1"/></g></g></g><path d="m104.457 350.651-.189-.041c-6.543-1.425-10.718-7.853-9.361-14.41l9.05-43.71c1.652-7.978 6.67-14.854 13.765-18.861l24.14-13.632c0 80.124 79.551 224.313 79.551 224.313h-37.546l-75.259-94.688c-2.962-3.995-3.206-9.387-.617-13.633l4.295-7.044c4.37-7.169.374-16.507-7.829-18.294z" fill="#5f98d5"/></g></g><g><g><g><g><g><path d="m300.965 259.996-33.803-14.664 3.797 10.412c.258.707.418 1.45.441 2.203.004.119.007.239.009.358.312 14.467-8.432 27.611-21.618 33.571l-28.378 12.826 41.335 15.225c19.508 7.185 40.073-7.706 39.334-28.482z" fill="#d4e2f1"/></g></g></g><path d="m338.371 350.651.189-.041c6.543-1.425 10.718-7.853 9.361-14.41l-9.05-43.71c-1.652-7.978-6.67-14.854-13.765-18.861l-24.14-13.632c0 80.124-79.551 224.265-79.551 224.265h37.546l75.259-94.641c2.962-3.995 3.206-9.387.617-13.633l-4.295-7.044c-4.37-7.168-.374-16.506 7.829-18.293z" fill="#5f98d5"/><path d="m338.87 292.489c-1.652-7.978-6.67-14.854-13.764-18.861l-24.14-13.632c0 6.616-.552 13.674-1.547 21.046 15.958 8.735 32.194 20.804 44.81 37.325z" fill="#3986ce"/></g></g><g><path d="m221.414 304.702-34.99 12.888 19.97 34.357h30.04l19.97-34.357z" fill="#fc8086"/></g></g></g></g></g></g></g><path d="m444.555 423.493c0-41.406-27.129-76.454-64.573-88.399-46.907 2.218-84.259 40.943-84.259 88.399 0 42.776 30.178 78.41 70.517 86.656.044.009.088.018.133.027 8.966 1.819 18.314.557 26.513-3.503 30.614-15.16 51.669-46.703 51.669-83.18z" fill="#93d87b"/><path d="m384.23 334.986c-6.167 0-12.18.646-17.99 1.851 40.216 8.341 70.442 43.967 70.442 86.656s-30.226 78.315-70.442 86.656c5.809 1.204 11.822 1.851 17.99 1.851 48.881 0 88.507-39.626 88.507-88.507s-39.626-88.507-88.507-88.507z" fill="#7fd061"/><g><circle cx="384.23" cy="423.493" fill="#f0f0f3" r="52.452"/></g></g></g></g></g></g><g><path d="m411.622 413.841h-19.538v-19.538c0-4.267-3.459-7.726-7.726-7.726s-7.726 3.459-7.726 7.726v19.538h-19.539c-4.267 0-7.726 3.459-7.726 7.726s3.459 7.726 7.726 7.726h19.539v19.539c0 4.267 3.459 7.726 7.726 7.726s7.726-3.459 7.726-7.726v-19.539h19.538c4.267 0 7.726-3.459 7.726-7.726s-3.458-7.726-7.726-7.726z" fill="#695e66"/></g></g><g><g><path d="m118.306 79.365v45.669h53.37v-87.729h-11.309c-23.23 0-42.061 18.831-42.061 42.06z" fill="#fb9538"/></g><g><path d="m145.665 100.788c-12.387 0-12.861 0-12.861 0-11.513.006-20.841 9.345-20.833 20.858l.016 22.744c.007 9.387 7.621 16.992 17.008 16.987h16.67z" fill="#ffdbcc"/><path d="m310.024 100.789s-10.408-.002-12.861-.002v60.587h7.475l9.194.004c9.387.005 17.001-7.6 17.008-16.987l.016-22.744c.009-11.514-9.319-20.853-20.832-20.858z" fill="#ffeae1"/></g><path d="m221.39 237.876c.007 0 .013-.001.02-.002h.004c.007 0 .013.001.02.002v-.003c.769-.036 1.518-.106 2.274-.161 7.437-3.595 13.902-8.062 19.401-12.814 16.027-13.849 24.951-34.304 25.492-55.593v-138.491h-57.905c-36.546 0-66.172 29.626-66.172 66.172v64.388c.54 21.289 9.465 41.744 25.492 55.593 12.26 10.594 29.235 19.863 51.374 20.906z" fill="#ffeae1"/></g><g><path d="m268.601 59.437v-52.593c0-3.552-2.752-6.515-6.297-6.741-.02-.001-.039-.002-.059-.004-1.375-.086-2.171-.099-3.568-.099h-134.333c-3.324 0-6.018 2.694-6.018 6.018 0 29.497 23.912 53.409 53.409 53.409h96.469c.133 0 .264.009.397.01z" fill="#fba65c"/></g><path d="m262.245 30.814v134.885c-.54 21.289-9.465 41.744-25.492 55.593-6.948 6.004-15.413 11.578-25.47 15.474 3.246.549 6.604.941 10.107 1.106v.003c.007 0 .013-.001.02-.002h.004c.007 0 .013.001.02.002v-.003c22.139-1.043 39.114-10.312 51.374-20.906 16.027-13.849 24.951-34.304 25.492-55.593v-60.587-69.972z" fill="#ffdbcc"/><g><path d="m324.5 65.818c-.002-35.154-27.563-63.865-62.254-65.719v59.328h5.959c16.622 0 30.096 13.475 30.096 30.096v11.263c3.575 0 11.724.002 11.724.002 5.63.003 10.729 2.248 14.477 5.878z" fill="#fb9538"/></g></g></svg>