<svg id="Capa_1" enable-background="new 0 0 511.907 511.907" height="512" viewBox="0 0 511.907 511.907" width="512" xmlns="http://www.w3.org/2000/svg"><g><g><path d="m444.751 135.366h-377.596c-32.955 0-59.671 26.715-59.671 59.671v136.073c0 32.955 26.716 59.671 59.671 59.671h140.111c3.272 0 6.339 1.593 8.22 4.269l32.247 45.867c4.002 5.692 12.439 5.692 16.441 0l32.247-45.867c1.882-2.676 4.949-4.269 8.22-4.269h140.111c32.955 0 59.671-26.715 59.671-59.671v-136.073c-.001-32.955-26.716-59.671-59.672-59.671z" fill="#cb97e7"/></g><g><path d="m284.684 390.783h19.959c-3.273 0-6.337 1.587-8.223 4.271l-32.243 45.865c-4.002 5.688-12.444 5.688-16.446 0l-1.756-2.495 30.487-43.37c1.885-2.684 4.949-4.271 8.222-4.271z" fill="#bd80e1"/></g><g><path d="m504.418 195.039v136.068c0 32.962-26.715 59.676-59.666 59.676h-19.959c32.952 0 59.666-26.715 59.666-59.676v-136.068c0-32.962-26.715-59.676-59.666-59.676h19.959c32.951 0 59.666 26.714 59.666 59.676z" fill="#bd80e1"/></g><g><circle cx="418.865" cy="135.366" fill="#fedf30" r="68.646"/></g><g><path d="m487.513 135.363c0 37.911-30.736 68.648-68.648 68.648-17.494 0-33.471-6.546-45.595-17.334 8.203 3.463 17.224 5.379 26.685 5.379 37.911 0 68.638-30.736 68.638-68.648 0-20.408-8.902-38.73-23.032-51.303 24.658 10.417 41.952 34.817 41.952 63.258z" fill="#fac600"/></g><g><path d="m140.223 213.819h170.653c4.133 0 7.484-3.351 7.484-7.484s-3.351-7.484-7.484-7.484h-170.653c-4.133 0-7.484 3.351-7.484 7.484-.001 4.133 3.35 7.484 7.484 7.484z"/><path d="m68.28 213.819h37.234c4.133 0 7.484-3.351 7.484-7.484s-3.351-7.484-7.484-7.484h-37.234c-4.133 0-7.484 3.351-7.484 7.484s3.351 7.484 7.484 7.484z"/><path d="m140.223 251.437h170.653c4.133 0 7.484-3.351 7.484-7.484 0-4.134-3.351-7.484-7.484-7.484h-170.653c-4.133 0-7.484 3.351-7.484 7.484-.001 4.133 3.35 7.484 7.484 7.484z"/><path d="m68.28 251.437h37.234c4.133 0 7.484-3.351 7.484-7.484 0-4.134-3.351-7.484-7.484-7.484h-37.234c-4.133 0-7.484 3.351-7.484 7.484s3.351 7.484 7.484 7.484z"/><path d="m252.645 281.572c0 4.134 3.351 7.484 7.484 7.484h181.727c4.134 0 7.484-3.351 7.484-7.484s-3.351-7.484-7.484-7.484h-181.726c-4.134 0-7.485 3.351-7.485 7.484z"/><path d="m68.28 289.057h157.27c4.133 0 7.484-3.351 7.484-7.484s-3.351-7.484-7.484-7.484h-157.27c-4.133 0-7.484 3.351-7.484 7.484s3.351 7.484 7.484 7.484z"/><path d="m68.28 327.297h375.346c4.134 0 7.484-3.351 7.484-7.484 0-4.134-3.351-7.484-7.484-7.484h-375.346c-4.133 0-7.484 3.351-7.484 7.484s3.351 7.484 7.484 7.484z"/><path d="m493.718 149.167c.824-4.479 1.277-9.087 1.277-13.801 0-41.978-34.152-76.131-76.13-76.131-8.376 0-16.612 1.353-24.476 4.022-3.914 1.328-6.01 5.578-4.682 9.493s5.577 6.01 9.492 4.682c6.313-2.142 12.929-3.228 19.666-3.228 33.724 0 61.161 27.437 61.161 61.162s-27.437 61.161-61.161 61.161-61.162-27.437-61.162-61.161c0-14.987 5.475-29.405 15.416-40.598 2.745-3.09 2.465-7.821-.626-10.566-3.091-2.746-7.821-2.465-10.566.626-10.711 12.059-17.248 27.126-18.816 43.054h-275.955c-37.03 0-67.156 30.125-67.156 67.155v136.073c0 37.03 30.126 67.155 67.155 67.155l26.324.002c4.133 0 7.484-3.351 7.484-7.484 0-4.134-3.35-7.484-7.484-7.485l-26.324-.002c-28.776 0-52.187-23.41-52.187-52.186v-136.073c0-28.776 23.411-52.186 52.187-52.186h275.951c3.773 38.478 36.306 68.646 75.759 68.646 30.921 0 57.576-18.54 69.483-45.078 5.42 8.224 8.59 18.054 8.59 28.619v136.072c0 28.776-23.411 52.186-52.187 52.186h-140.11c-5.703 0-11.064 2.785-14.343 7.449l-32.247 45.867c-.667.948-1.6 1.09-2.098 1.09s-1.431-.142-2.098-1.09l-32.247-45.867c-3.279-4.665-8.641-7.45-14.343-7.45h-79.485c-4.133 0-7.484 3.351-7.484 7.484s3.351 7.484 7.484 7.484h79.486c.834 0 1.618.407 2.098 1.09l32.247 45.867c3.279 4.665 8.641 7.449 14.343 7.449s11.063-2.785 14.343-7.449l32.248-45.868c.479-.682 1.263-1.089 2.097-1.089h140.11c37.03 0 67.156-30.125 67.156-67.155v-136.071c-.001-17.729-6.925-33.857-18.19-45.87z"/><path d="m387.864 142.851h23.517v23.517c0 4.134 3.351 7.484 7.484 7.484s7.484-3.351 7.484-7.484v-23.517h23.517c4.134 0 7.484-3.351 7.484-7.484 0-4.134-3.351-7.484-7.484-7.484h-23.517v-23.517c0-4.133-3.351-7.484-7.484-7.484-4.134 0-7.484 3.351-7.484 7.484v23.517h-23.517c-4.133 0-7.484 3.351-7.484 7.484-.001 4.133 3.35 7.484 7.484 7.484z"/></g></g></svg>